<svg width="17" height="19" viewBox="0 0 17 19" fill="none" xmlns="http://www.w3.org/2000/svg">
<path d="M7.32695 14.6191C5.64823 14.6191 3.96312 14.6191 2.2844 14.6191C2.15674 14.6191 2.02908 14.6128 1.90142 14.6191C1.45461 14.6447 0.905678 14.3064 0.803551 13.6936C0.784402 13.5915 0.771636 13.483 0.771636 13.3809C0.771636 11.9191 0.765253 10.4511 0.771636 8.98936C0.771636 8.51064 0.982274 8.13404 1.42908 7.91702C1.60142 7.83404 1.78653 7.79574 1.97802 7.79574C5.55249 7.79574 9.12696 7.79574 12.7078 7.79574C13.244 7.79574 13.6397 8.04468 13.8248 8.54255C13.8631 8.65106 13.8823 8.77234 13.8823 8.89362C13.8823 10.4383 13.8823 11.9894 13.8823 13.534C13.8823 13.9617 13.595 14.4021 13.1738 14.5489C13.0589 14.5872 12.9248 14.6191 12.8036 14.6191C10.978 14.6191 7.32695 14.6191 7.32695 14.6191ZM6.25461 13.0234C6.21632 12.966 6.19717 12.934 6.17164 12.8957C5.82057 12.3979 5.47589 11.8936 5.11844 11.3957C5.08015 11.3383 5.07376 11.2936 5.11206 11.2362C5.43121 10.7255 5.75036 10.2149 6.06951 9.70426C6.10142 9.65319 6.12695 9.60213 6.16525 9.5383C6.12695 9.5383 6.10781 9.53191 6.08227 9.53191C5.76951 9.53191 5.45674 9.53191 5.14398 9.53191C5.08653 9.53191 5.05461 9.55745 5.02908 9.60851C4.90142 9.8383 4.77376 10.0745 4.63972 10.3043C4.58866 10.4 4.53121 10.4957 4.47376 10.5979C4.461 10.5851 4.45461 10.5851 4.45461 10.5787C4.26312 10.2532 4.07802 9.93404 3.89291 9.60851C3.86738 9.56383 3.83547 9.54468 3.7844 9.54468C3.47164 9.54468 3.16525 9.54468 2.85249 9.54468C2.83334 9.54468 2.81419 9.54468 2.78227 9.55106C2.82695 9.62128 2.86525 9.68511 2.90355 9.74894C3.20993 10.234 3.5227 10.7128 3.82908 11.1915C3.85461 11.2298 3.861 11.2553 3.82908 11.2936C3.45887 11.8489 3.09504 12.4106 2.73121 12.966C2.72483 12.9787 2.72483 12.9915 2.71844 13.017C2.75036 13.017 2.76951 13.017 2.79504 13.017C3.06313 13.017 3.33759 13.0043 3.60568 13.017C3.75249 13.0234 3.82908 12.9723 3.90568 12.8447C4.0844 12.5383 4.27589 12.2447 4.461 11.9383C4.67164 12.2702 4.88227 12.6021 5.08653 12.9277C5.12483 12.9851 5.16313 13.0043 5.22695 13.0043C5.53334 13.0043 5.83972 13.0043 6.13972 13.0043C6.16525 13.0043 6.19078 13.0043 6.24185 13.0043L6.25461 13.0234ZM11.8078 9.74255C11.8078 9.74255 11.8078 9.72979 11.8014 9.72979C11.795 9.72979 11.7823 9.71702 11.7759 9.71064C11.3674 9.5383 10.9461 9.4617 10.5057 9.48085C10.2567 9.49362 10.0206 9.55106 9.80355 9.68511C9.64398 9.78723 9.51632 9.90851 9.4461 10.0872C9.39504 10.234 9.35674 10.3745 9.36312 10.534C9.37589 10.9043 9.5227 11.1979 9.84185 11.383C10.0078 11.4787 10.1801 11.5553 10.3461 11.6447C10.4738 11.7085 10.595 11.7723 10.7163 11.8426C10.7993 11.8872 10.8504 11.9638 10.8376 12.066C10.8248 12.1681 10.761 12.2383 10.6653 12.2574C10.5759 12.2766 10.4801 12.2957 10.3908 12.2894C10.0525 12.2766 9.73334 12.1745 9.42057 12.034C9.39504 12.0213 9.37589 12.0149 9.35036 12.0021C9.35036 12.0213 9.34398 12.034 9.34398 12.0468C9.34398 12.2957 9.34398 12.5447 9.34398 12.7936C9.34398 12.8447 9.37589 12.8638 9.41419 12.883C9.65674 12.9915 9.91206 13.0426 10.1738 13.0553C10.5248 13.0809 10.8759 13.0681 11.2014 12.9021C11.4057 12.8 11.578 12.6596 11.6929 12.4553C11.8014 12.2511 11.8142 12.034 11.8014 11.8106C11.7887 11.6064 11.7248 11.4149 11.5653 11.2809C11.4184 11.1596 11.2525 11.0574 11.0865 10.9617C10.9206 10.866 10.7418 10.7894 10.5695 10.7064C10.5057 10.6745 10.4482 10.6362 10.3972 10.5915C10.2759 10.4766 10.3014 10.3298 10.4546 10.2723C10.5312 10.2404 10.627 10.2277 10.7099 10.234C10.9653 10.2468 11.2014 10.3234 11.4376 10.4255C11.4631 10.4383 11.495 10.4511 11.527 10.4638C11.6291 10.2149 11.7248 9.97234 11.8206 9.72979L11.8078 9.74255ZM7.58227 12.2447C7.58227 12.2 7.58227 12.1681 7.58227 12.1362C7.58227 11.3 7.58227 10.4638 7.58227 9.62766C7.58227 9.55745 7.56951 9.5383 7.49291 9.5383C7.23121 9.5383 6.97589 9.5383 6.71419 9.5383C6.65036 9.5383 6.63121 9.55745 6.63121 9.61489C6.63121 10.7191 6.63121 11.8298 6.63121 12.934C6.63121 12.9979 6.65036 13.017 6.71419 13.017C7.07164 13.017 7.43547 13.017 7.79291 13.017C8.14398 13.017 8.49504 13.017 8.8461 13.017C8.90993 13.017 8.93547 12.9979 8.93547 12.934C8.93547 12.7298 8.93547 12.5319 8.93547 12.3277C8.93547 12.2766 8.92908 12.2511 8.86525 12.2511C8.59078 12.2511 8.31632 12.2511 8.03547 12.2511C7.88227 12.2511 7.73547 12.2511 7.57589 12.2511L7.58227 12.2447Z" fill="white"/>
<path d="M16.2312 17.2936C16.2312 17.683 16.1036 18.0213 15.7844 18.2702C15.5993 18.4106 15.395 18.5 15.1525 18.5C14.9993 18.5 14.8525 18.5 14.6993 18.5C11.0227 18.5 7.33972 18.5 3.66313 18.5C3.49717 18.5 3.33121 18.5 3.17164 18.4745C2.80781 18.4043 2.55249 18.1872 2.38653 17.8617C2.31632 17.7213 2.2844 17.5745 2.2844 17.4149C2.2844 16.7064 2.2844 15.9915 2.27802 15.283C2.27802 15.2255 2.29078 15.1936 2.35461 15.2C2.47589 15.2064 2.59078 15.2064 2.71206 15.2C2.77589 15.2 2.80781 15.2191 2.79504 15.283C2.79504 15.2957 2.79504 15.3085 2.79504 15.3213C2.79504 15.9915 2.78866 16.6617 2.79504 17.3383C2.80142 17.7213 3.01206 17.8872 3.31206 17.9447C3.37589 17.9574 3.4461 17.9638 3.51632 17.9638C7.3461 17.9638 11.1759 17.9638 15.0057 17.9638C15.4014 17.9638 15.6312 17.7149 15.6504 17.3383C15.6504 17.2426 15.6504 17.1468 15.6504 17.0511C15.6504 13.1 15.6504 9.14255 15.6504 5.19149C15.6504 5.05106 15.6504 4.90426 15.6504 4.76383C15.6504 4.65532 15.5227 4.52766 15.4142 4.52766C14.7248 4.52766 14.0355 4.52766 13.3461 4.52766C13.0716 4.52766 12.8099 4.47021 12.5865 4.30426C12.3121 4.1 12.1525 3.83191 12.1461 3.48085C12.1461 2.75319 12.1461 2.02553 12.1461 1.29787C12.1461 1.23404 12.127 1.18936 12.0823 1.14468C11.9993 1.05532 11.9099 1.0234 11.7823 1.0234C9.01844 1.0234 6.25461 1.0234 3.49078 1.0234C3.40781 1.0234 3.32483 1.03617 3.23547 1.04894C2.94823 1.08723 2.77589 1.3617 2.77589 1.61702C2.77589 3.42979 2.77589 5.24894 2.77589 7.0617C2.77589 7.1 2.77589 7.1383 2.77589 7.17021C2.77589 7.22766 2.76313 7.25319 2.6993 7.24681C2.57802 7.24681 2.45674 7.24681 2.33547 7.24681C2.26525 7.24681 2.25249 7.22766 2.25249 7.16383C2.25249 5.61277 2.25887 4.0617 2.26525 2.51702C2.26525 2.18511 2.27164 1.85319 2.26525 1.52128C2.26525 1.29787 2.34185 1.10638 2.46951 0.940426C2.71206 0.665957 2.99929 0.506383 3.36951 0.506383C4.67802 0.5 10.4738 0.5 12.0631 0.5C12.1589 0.5 12.2291 0.519149 12.2993 0.595745C13.5057 1.79574 14.7121 2.99574 15.9184 4.18936C15.995 4.26596 16.0653 4.34255 16.1418 4.41277C16.2057 4.47021 16.2312 4.53404 16.2312 4.6234C16.2312 6.74255 16.2312 15.1872 16.2312 17.3V17.2936ZM12.6887 1.78936C12.6887 1.82766 12.6823 1.84043 12.6823 1.85319C12.6823 2.21702 12.6823 2.57447 12.6823 2.9383C12.6823 3.1234 12.6823 3.30851 12.6887 3.49362C12.7014 3.65957 12.7844 3.79362 12.9312 3.88298C13.0461 3.95319 13.161 3.97872 13.295 3.97872C13.7929 3.97872 14.2908 3.97872 14.7887 3.97872C14.8142 3.97872 14.8461 3.97872 14.8716 3.97872C14.8716 3.97234 14.8716 3.96596 14.878 3.95957C14.1504 3.24468 13.4291 2.5234 12.695 1.79574L12.6887 1.78936Z" fill="white"/>
</svg>
